<svg xmlns="http://www.w3.org/2000/svg" viewBox="0 0 880 470" font-family="ui-monospace,SFMono-Regular,Menlo,Consolas,monospace">
  <title>Four surfaces, two speeds, shown as three sessions back to back. Every session the context window clears and reloads the same two thin surfaces, instructions and router, for about five thousand tokens flat. The vault, drawn as a small knowledge graph, and the session archive sit on the other side and never reset. In session one a router row fires and one payments doc crosses over for 1.4k more; in session two a different row pulls a rate-limiting doc for 1.1k; in session three no row fires and the deep side costs nothing. Read docs keep a burnt ember, and the counters track each session's total.</title>
  <style>
    .b1 { animation: b1 24s linear infinite; animation-fill-mode: backwards; }
    @keyframes b1 { 0%,0.5%{opacity:0;transform:translateX(-14px)} 1.6%{opacity:1;transform:translate(0,0)} 30.8%{opacity:1;transform:translate(0,0)} 32%{opacity:0;transform:translate(0,0)} 33.83%{opacity:0;transform:translateX(-14px)} 34.93%{opacity:1;transform:translate(0,0)} 64.13%{opacity:1;transform:translate(0,0)} 65.33%{opacity:0;transform:translate(0,0)} 67.17%{opacity:0;transform:translateX(-14px)} 68.27%{opacity:1;transform:translate(0,0)} 97.47%{opacity:1;transform:translate(0,0)} 98.67%{opacity:0;transform:translate(0,0)} 100%{opacity:0;transform:translateX(-14px)} }
    .b2 { animation: b2 24s linear infinite; animation-fill-mode: backwards; }
    @keyframes b2 { 0%,0.8%{opacity:0;transform:translateX(-14px)} 1.9%{opacity:1;transform:translate(0,0)} 31.1%{opacity:1;transform:translate(0,0)} 32.3%{opacity:0;transform:translate(0,0)} 34.13%{opacity:0;transform:translateX(-14px)} 35.23%{opacity:1;transform:translate(0,0)} 64.43%{opacity:1;transform:translate(0,0)} 65.63%{opacity:0;transform:translate(0,0)} 67.47%{opacity:0;transform:translateX(-14px)} 68.57%{opacity:1;transform:translate(0,0)} 97.77%{opacity:1;transform:translate(0,0)} 98.97%{opacity:0;transform:translate(0,0)} 100%{opacity:0;transform:translateX(-14px)} }
    .free { animation: free 24s linear infinite; animation-fill-mode: backwards; }
    @keyframes free { 0%,2.2%{opacity:0} 3.3%{opacity:1} 30.4%{opacity:1} 31.6%{opacity:0} 35.53%{opacity:0} 36.63%{opacity:1} 63.73%{opacity:1} 64.93%{opacity:0} 68.87%{opacity:0} 69.97%{opacity:1} 97.07%{opacity:1} 98.27%{opacity:0} 100%{opacity:0} }
    .c5 { animation: c5 24s linear infinite; animation-fill-mode: backwards; }
    @keyframes c5 { 0%,2.2%{opacity:0} 3.3%{opacity:1} 11.2%{opacity:1} 12.4%{opacity:0} 35.53%{opacity:0} 36.63%{opacity:1} 44.53%{opacity:1} 45.73%{opacity:0} 68.87%{opacity:0} 69.97%{opacity:1} 97.07%{opacity:1} 98.27%{opacity:0} 100%{opacity:0} }
    .tk0 { animation: tk0 24s linear infinite; animation-fill-mode: backwards; }
    @keyframes tk0 { 0%,3%{opacity:0;transform:translateY(-8px)} 4.1%{opacity:1;transform:translate(0,0)} 29.3%{opacity:1;transform:translate(0,0)} 30.5%{opacity:0;transform:translate(0,0)} 100%{opacity:0;transform:translateY(-8px)} }
    .tk1 { animation: tk1 24s linear infinite; animation-fill-mode: backwards; }
    @keyframes tk1 { 0%,36.33%{opacity:0;transform:translateY(-8px)} 37.43%{opacity:1;transform:translate(0,0)} 62.63%{opacity:1;transform:translate(0,0)} 63.83%{opacity:0;transform:translate(0,0)} 100%{opacity:0;transform:translateY(-8px)} }
    .tk2 { animation: tk2 24s linear infinite; animation-fill-mode: backwards; }
    @keyframes tk2 { 0%,69.67%{opacity:0;transform:translateY(-8px)} 70.77%{opacity:1;transform:translate(0,0)} 95.97%{opacity:1;transform:translate(0,0)} 97.17%{opacity:0;transform:translate(0,0)} 100%{opacity:0;transform:translateY(-8px)} }
    .r1t { animation: r1t 24s linear infinite; animation-fill-mode: backwards; }
    @keyframes r1t { 0%,5%{fill:#6e7681} 5.8%,29.5%{fill:#fbbf24} 30.5%,100%{fill:#6e7681} }
    .r1b { animation: r1b 24s linear infinite; animation-fill-mode: backwards; }
    @keyframes r1b { 0%,5%{stroke:transparent} 5.8%,29.5%{stroke:#4a3a20} 30.5%,100%{stroke:transparent} }
    .r2t { animation: r2t 24s linear infinite; animation-fill-mode: backwards; }
    @keyframes r2t { 0%,38.33%{fill:#6e7681} 39.13%,62.83%{fill:#fbbf24} 63.83%,100%{fill:#6e7681} }
    .r2b { animation: r2b 24s linear infinite; animation-fill-mode: backwards; }
    @keyframes r2b { 0%,38.33%{stroke:transparent} 39.13%,62.83%{stroke:#4a3a20} 63.83%,100%{stroke:transparent} }
    .sc1 { animation: sc1 24s linear infinite; animation-fill-mode: backwards; }
    @keyframes sc1 { 0%,71.67%{stroke:transparent} 72.17%{stroke:#6e7681} 72.97%,100%{stroke:transparent} }
    .sc2 { animation: sc2 24s linear infinite; animation-fill-mode: backwards; }
    @keyframes sc2 { 0%,73.07%{stroke:transparent} 73.57%{stroke:#6e7681} 74.37%,100%{stroke:transparent} }
    .noro { animation: noro 24s linear infinite; animation-fill-mode: backwards; }
    @keyframes noro { 0%,74.97%{opacity:0} 76.07%{opacity:1} 95.97%{opacity:1} 97.17%{opacity:0} 100%{opacity:0} }
    .pg0 { animation: pg0 24s linear infinite; animation-fill-mode: backwards; }
    @keyframes pg0 { 0%,6%{stroke-dashoffset:100;opacity:0;animation-timing-function:cubic-bezier(.33,.09,.22,1)} 6.2%{opacity:.9;animation-timing-function:cubic-bezier(.33,.09,.22,1)} 8.2%{stroke-dashoffset:0;opacity:.85} 11%{stroke-dashoffset:0;opacity:.5} 12.2%,100%{stroke-dashoffset:0;opacity:0} }
    .pg1 { animation: pg1 24s linear infinite; animation-fill-mode: backwards; }
    @keyframes pg1 { 0%,39.33%{stroke-dashoffset:100;opacity:0;animation-timing-function:cubic-bezier(.33,.09,.22,1)} 39.53%{opacity:.9;animation-timing-function:cubic-bezier(.33,.09,.22,1)} 41.53%{stroke-dashoffset:0;opacity:.85} 44.33%{stroke-dashoffset:0;opacity:.5} 45.53%,100%{stroke-dashoffset:0;opacity:0} }
    .ht0 { animation: ht0 24s linear infinite; animation-fill-mode: backwards; }
    @keyframes ht0 { 0%,7.6%{opacity:0;fill:#fbbf24} 8.6%{opacity:1;fill:#fbbf24} 12%{opacity:.95;fill:#7c2d12} 97%{opacity:.95;fill:#7c2d12} 99.3%,100%{opacity:0;fill:#7c2d12} }
    .ht1 { animation: ht1 24s linear infinite; animation-fill-mode: backwards; }
    @keyframes ht1 { 0%,40.93%{opacity:0;fill:#fbbf24} 41.93%{opacity:1;fill:#fbbf24} 45.33%{opacity:.95;fill:#7c2d12} 97%{opacity:.95;fill:#7c2d12} 99.3%,100%{opacity:0;fill:#7c2d12} }
    .fl0 { animation: fl0 24s linear infinite; animation-fill-mode: backwards; animation-timing-function: cubic-bezier(.45,0,.25,1); }
    @keyframes fl0 { 0%,8.8%{opacity:0;transform:translate(0,0)} 9.2%{opacity:1} 11.2%{opacity:1;transform:translate(-529.6px,41.4px)} 11.8%,100%{opacity:0;transform:translate(-529.6px,41.4px)} }
    .fl1 { animation: fl1 24s linear infinite; animation-fill-mode: backwards; animation-timing-function: cubic-bezier(.45,0,.25,1); }
    @keyframes fl1 { 0%,42.13%{opacity:0;transform:translate(0,0)} 42.53%{opacity:1} 44.53%{opacity:1;transform:translate(-695.5px,41.2px)} 45.13%,100%{opacity:0;transform:translate(-695.5px,41.2px)} }
    .dc0 { animation: dc0 24s linear infinite; animation-fill-mode: backwards; transform-box: fill-box; transform-origin: top; }
    @keyframes dc0 { 0%,11.2%{opacity:0;transform:scaleY(0)} 11.6%{opacity:1} 12.4%{opacity:1;transform:scaleY(1)} 30.5%{opacity:1;transform:scaleY(1)} 31.6%,100%{opacity:0;transform:scaleY(1)} }
    .dc1 { animation: dc1 24s linear infinite; animation-fill-mode: backwards; transform-box: fill-box; transform-origin: top; }
    @keyframes dc1 { 0%,44.53%{opacity:0;transform:scaleY(0)} 44.93%{opacity:1} 45.73%{opacity:1;transform:scaleY(1)} 63.83%{opacity:1;transform:scaleY(1)} 64.93%,100%{opacity:0;transform:scaleY(1)} }
    .c60 { animation: c60 24s linear infinite; animation-fill-mode: backwards; }
    @keyframes c60 { 0%,12.4%{opacity:0} 13.5%{opacity:1} 29.8%{opacity:1} 31%{opacity:0} 100%{opacity:0} }
    .c61 { animation: c61 24s linear infinite; animation-fill-mode: backwards; }
    @keyframes c61 { 0%,45.73%{opacity:0} 46.83%{opacity:1} 63.13%{opacity:1} 64.33%{opacity:0} 100%{opacity:0} }
    .v1a { animation: v1a 24s linear infinite; animation-fill-mode: backwards; }
    @keyframes v1a { 0%,12.4%{opacity:0} 13.5%{opacity:1} 30%{opacity:1} 31.2%{opacity:0} 100%{opacity:0} }
    .v1b { animation: v1b 24s linear infinite; animation-fill-mode: backwards; }
    @keyframes v1b { 0%,45.73%{opacity:0} 46.83%{opacity:1} 63.33%{opacity:1} 64.53%{opacity:0} 100%{opacity:0} }
    .v0 { animation: v0 24s linear infinite; animation-fill-mode: backwards; }
    @keyframes v0 { 0%{opacity:0} 1.11%{opacity:1} 11.2%{opacity:1} 12.4%{opacity:0} 31.2%{opacity:0} 32.3%{opacity:1} 44.53%{opacity:1} 45.73%{opacity:0} 64.53%{opacity:0} 65.63%{opacity:1} 98.2%{opacity:1} 99.4%{opacity:0} 100%{opacity:0} }
    .pl0 { animation: pl0 24s linear infinite; animation-fill-mode: backwards; }
    @keyframes pl0 { 0%,13.5%{opacity:0} 14.6%{opacity:1} 29.8%{opacity:1} 31%{opacity:0} 100%{opacity:0} }
    .pl1 { animation: pl1 24s linear infinite; animation-fill-mode: backwards; }
    @keyframes pl1 { 0%,46.83%{opacity:0} 47.93%{opacity:1} 63.13%{opacity:1} 64.33%{opacity:0} 100%{opacity:0} }
    .pl2 { animation: pl2 24s linear infinite; animation-fill-mode: backwards; }
    @keyframes pl2 { 0%,76.67%{opacity:0} 77.77%{opacity:1} 96.47%{opacity:1} 97.67%{opacity:0} 100%{opacity:0} }
    @media (prefers-reduced-motion: reduce) { * { animation: none !important; }
      .tk0, .tk1, .tk2, .c5, .c61, .v0, .v1b, .dc1, .noro, .pl1, .pl2, .pg0, .pg1, .fl0, .fl1, .ht0, .ht1 { opacity: 0 !important; }
      .b1, .b2, .dc0, .free, .c60, .v1a, .pl0 { opacity: 1 !important; transform: none !important; } }
  </style>
  <rect x="0.5" y="0.5" width="879" height="469" rx="12" fill="#0d1117" stroke="#30363d"/>
  <g class="tk0">
    <rect x="290" y="8" width="300" height="26" rx="13" fill="#161b22" stroke="#30363d"/>
    <text x="440" y="25" font-size="11.5" fill="#e6edf3" text-anchor="middle">session 1 · "why is checkout failing?"</text>
  </g>
  <g class="tk1">
    <rect x="290" y="8" width="300" height="26" rx="13" fill="#161b22" stroke="#30363d"/>
    <text x="440" y="25" font-size="11.5" fill="#e6edf3" text-anchor="middle">session 2 · "are our rate limits sane?"</text>
  </g>
  <g class="tk2">
    <rect x="290" y="8" width="300" height="26" rx="13" fill="#161b22" stroke="#30363d"/>
    <text x="440" y="25" font-size="11.5" fill="#e6edf3" text-anchor="middle">session 3 · "rename a config flag"</text>
  </g>
  <text x="48" y="49" font-size="11" fill="#8b949e" letter-spacing=".08em">CONTEXT WINDOW</text>
  <text x="168" y="49" font-size="10.5" fill="#4d5566">· reloads every session · flat</text>
  <rect x="48" y="56" width="360" height="330" rx="10" fill="#10151c" stroke="#30363d"/>
  <g class="b1">
    <rect x="64" y="72" width="328" height="34" rx="7" fill="#0b2733" stroke="#2a4a55"/>
    <text x="76" y="93" font-size="11.5" fill="#67e8f9">① CLAUDE.md · rules</text>
    <text x="380" y="93" font-size="10.5" fill="#67e8f9" text-anchor="end">≈2k</text>
  </g>
  <g class="b2">
    <rect x="64" y="114" width="328" height="66" rx="7" fill="#1d1530" stroke="#4c3a75"/>
    <text x="76" y="132" font-size="11.5" fill="#a78bfa">② MEMORY.md router (≤200 lines)</text>
    <text x="380" y="132" font-size="10.5" fill="#a78bfa" text-anchor="end">≈3k</text>
    <rect class="r1b sc1" x="72" y="140" width="312" height="16" rx="4" fill="none" stroke="transparent"/>
    <text class="r1t" x="80" y="152" font-size="10.5" fill="#6e7681">payments → read [[Dunning and Retries]]</text>
    <rect class="r2b sc2" x="72" y="159" width="312" height="16" rx="4" fill="none" stroke="transparent"/>
    <text class="r2t" x="80" y="171" font-size="10.5" fill="#6e7681">rate limits → read [[Rate Limiting]]</text>
  </g>
  <g class="dc0">
    <rect x="64" y="188" width="328" height="26" rx="7" fill="#2a1f10" stroke="#4a3a20"/>
    <text x="76" y="205" font-size="11.5" fill="#fbbf24">Dunning and Retries.md</text>
    <text x="380" y="205" font-size="10.5" fill="#fbbf24" text-anchor="end">+1.4k</text>
  </g>
  <g class="dc1">
    <rect x="64" y="188" width="328" height="26" rx="7" fill="#2a1f10" stroke="#4a3a20"/>
    <text x="76" y="205" font-size="11.5" fill="#fbbf24">Rate Limiting.md</text>
    <text x="380" y="205" font-size="10.5" fill="#fbbf24" text-anchor="end">+1.1k</text>
  </g>
  <text class="noro" x="76" y="205" font-size="11" fill="#4d5566">no row fired · nothing loaded from the vault</text>
  <text class="free" x="228" y="300" font-size="11" fill="#4d5566" text-anchor="middle">~194k free for the actual task</text>
  <text class="c5" x="392" y="372" font-size="11.5" fill="#8b949e" text-anchor="end">5.0k tok loaded</text>
  <text class="c60" x="392" y="372" font-size="11.5" fill="#fbbf24" text-anchor="end">6.4k tok loaded</text>
  <text class="c61" x="392" y="372" font-size="11.5" fill="#fbbf24" text-anchor="end">6.1k tok loaded</text>
  <text x="460" y="49" font-size="11" fill="#8b949e" letter-spacing=".08em">EVERYTHING IT KNOWS</text>
  <text x="616" y="49" font-size="10.5" fill="#4d5566">· persistent · loads only when routed</text>
  <rect x="460" y="56" width="372" height="330" rx="10" fill="#10151c" stroke="#30363d"/>
  <text x="476" y="84" font-size="11" fill="#8b949e">③ vault · docs/vault/ · a wiki-linked graph</text>
  <g stroke="#8b949e" stroke-width="0.4">
    <line x1="506.5" y1="123" x2="504.6" y2="126" opacity="0.182"/>
    <line x1="517.7" y1="122.8" x2="516.6" y2="120.6" opacity="0.145"/>
    <line x1="528.3" y1="129.5" x2="528.5" y2="129.7" opacity="0.139"/>
    <line x1="537.3" y1="108.2" x2="529.9" y2="117.1" opacity="0.132"/>
    <line x1="523.9" y1="129" x2="521.2" y2="129.2" opacity="0.171"/>
    <line x1="534.5" y1="135.1" x2="538.5" y2="132.8" opacity="0.172"/>
    <line x1="529.9" y1="117.1" x2="524.8" y2="113.8" opacity="0.170"/>
    <line x1="531.6" y1="125" x2="529.3" y2="128.1" opacity="0.162"/>
    <line x1="521.6" y1="138.6" x2="521.2" y2="129.2" opacity="0.143"/>
    <line x1="539.7" y1="127.7" x2="538.5" y2="132.8" opacity="0.186"/>
    <line x1="514.9" y1="125.6" x2="517.7" y2="122.8" opacity="0.188"/>
    <line x1="511.8" y1="134.5" x2="508.6" y2="136.1" opacity="0.150"/>
    <line x1="504.7" y1="133.7" x2="508.6" y2="136.1" opacity="0.149"/>
    <line x1="521.4" y1="123.8" x2="517.7" y2="122.8" opacity="0.160"/>
    <line x1="529.3" y1="128.1" x2="528.3" y2="129.5" opacity="0.178"/>
    <line x1="509" y1="115.5" x2="515.2" y2="112.2" opacity="0.133"/>
    <line x1="510" y1="108.2" x2="515.2" y2="112.2" opacity="0.147"/>
    <line x1="539.5" y1="138.5" x2="538.5" y2="132.8" opacity="0.154"/>
    <line x1="616.2" y1="145.3" x2="617" y2="150.2" opacity="0.139"/>
    <line x1="598.3" y1="160.2" x2="599.5" y2="161.6" opacity="0.164"/>
    <line x1="624.5" y1="167.8" x2="616.4" y2="167.7" opacity="0.154"/>
    <line x1="618.8" y1="155.2" x2="622.7" y2="154.2" opacity="0.184"/>
    <line x1="598.7" y1="165.8" x2="598.5" y2="166.8" opacity="0.158"/>
    <line x1="599.5" y1="161.6" x2="598.7" y2="162.7" opacity="0.187"/>
    <line x1="601.4" y1="168.5" x2="598.5" y2="166.8" opacity="0.139"/>
    <line x1="607.6" y1="159.6" x2="606.8" y2="159" opacity="0.166"/>
    <line x1="616.4" y1="167.7" x2="612.6" y2="162.6" opacity="0.178"/>
    <line x1="607.2" y1="150.6" x2="606.8" y2="159" opacity="0.149"/>
    <line x1="609.1" y1="164.2" x2="612.6" y2="162.6" opacity="0.146"/>
    <line x1="597.8" y1="150.2" x2="596.4" y2="158.8" opacity="0.133"/>
    <line x1="596.4" y1="158.8" x2="598.3" y2="160.2" opacity="0.184"/>
    <line x1="607.8" y1="170.7" x2="609.1" y2="164.2" opacity="0.147"/>
    <line x1="683.3" y1="114.7" x2="677.3" y2="121.8" opacity="0.154"/>
    <line x1="700.1" y1="112.5" x2="703.6" y2="112.8" opacity="0.155"/>
    <line x1="702.3" y1="124.1" x2="701.5" y2="129.2" opacity="0.174"/>
    <line x1="677.3" y1="121.8" x2="680" y2="125.2" opacity="0.136"/>
    <line x1="694.9" y1="133.9" x2="687.1" y2="133" opacity="0.150"/>
    <line x1="690.7" y1="120.8" x2="697.2" y2="120.9" opacity="0.144"/>
    <line x1="708" y1="124.3" x2="708.4" y2="125.2" opacity="0.187"/>
    <line x1="699.7" y1="104" x2="696.9" y2="103.3" opacity="0.140"/>
    <line x1="707.9" y1="128.3" x2="707.9" y2="127.2" opacity="0.165"/>
    <line x1="704.5" y1="113.8" x2="703.6" y2="112.8" opacity="0.144"/>
    <line x1="673.4" y1="109.4" x2="683.3" y2="114.7" opacity="0.130"/>
    <line x1="695.7" y1="113.6" x2="700.1" y2="112.5" opacity="0.139"/>
    <line x1="707.2" y1="114.7" x2="704.5" y2="113.8" opacity="0.175"/>
    <line x1="691.7" y1="102.3" x2="696.9" y2="103.3" opacity="0.130"/>
    <line x1="701.3" y1="106.9" x2="699.7" y2="104" opacity="0.134"/>
    <line x1="697.2" y1="120.9" x2="702.3" y2="124.1" opacity="0.186"/>
    <line x1="709.5" y1="118.5" x2="707.2" y2="114.7" opacity="0.177"/>
    <line x1="760.2" y1="148.3" x2="765.1" y2="150.1" opacity="0.169"/>
    <line x1="778.3" y1="163.3" x2="780.7" y2="161" opacity="0.166"/>
    <line x1="787.5" y1="163.5" x2="780.7" y2="161" opacity="0.176"/>
    <line x1="781.1" y1="158.6" x2="780.7" y2="161" opacity="0.146"/>
    <line x1="774.4" y1="158.6" x2="773.5" y2="159.8" opacity="0.133"/>
    <line x1="780.5" y1="150.5" x2="775.8" y2="149.9" opacity="0.153"/>
    <line x1="760.6" y1="165.1" x2="760.8" y2="164.1" opacity="0.147"/>
    <line x1="768.9" y1="161.1" x2="773.5" y2="159.8" opacity="0.159"/>
    <line x1="753.6" y1="156.7" x2="760.8" y2="164.1" opacity="0.183"/>
    <line x1="763.4" y1="163.1" x2="760.8" y2="164.1" opacity="0.173"/>
    <line x1="777.7" y1="158.8" x2="778.1" y2="155.8" opacity="0.139"/>
    <line x1="764.1" y1="159.4" x2="763.4" y2="163.1" opacity="0.161"/>
    <line x1="586.4" y1="113.6" x2="578.4" y2="105.9" opacity="0.140"/>
    <line x1="569.3" y1="113.9" x2="578.4" y2="105.9" opacity="0.140"/>
    <line x1="548.7" y1="120.5" x2="541.6" y2="120.8" opacity="0.140"/>
    <line x1="489.9" y1="107.8" x2="510" y2="108.2" opacity="0.140"/>
    <line x1="589.4" y1="144.5" x2="597.8" y2="150.2" opacity="0.140"/>
    <line x1="796.4" y1="161.9" x2="787.5" y2="163.5" opacity="0.140"/>
    <line x1="577.8" y1="157.6" x2="589.4" y2="144.5" opacity="0.140"/>
    <line x1="771.7" y1="133.5" x2="775.8" y2="149.9" opacity="0.140"/>
    <line x1="506.5" y1="123" x2="521.6" y2="138.6" opacity="0.135"/>
    <line x1="510" y1="108.2" x2="531.6" y2="125" opacity="0.132"/>
    <line x1="539.7" y1="127.7" x2="537.3" y2="108.2" opacity="0.129"/>
    <line x1="521.2" y1="129.2" x2="537.3" y2="108.2" opacity="0.104"/>
    <line x1="529.9" y1="117.1" x2="514.9" y2="125.6" opacity="0.115"/>
    <line x1="606.8" y1="159" x2="612.6" y2="162.6" opacity="0.121"/>
    <line x1="601.4" y1="168.5" x2="598.3" y2="160.2" opacity="0.135"/>
    <line x1="598.7" y1="162.7" x2="598.7" y2="165.8" opacity="0.106"/>
    <line x1="616.2" y1="145.3" x2="607.2" y2="150.6" opacity="0.110"/>
    <line x1="609.1" y1="164.2" x2="601.4" y2="168.5" opacity="0.143"/>
    <line x1="703.6" y1="112.8" x2="702.3" y2="124.1" opacity="0.118"/>
    <line x1="707.9" y1="128.3" x2="708" y2="124.3" opacity="0.108"/>
    <line x1="701.5" y1="129.2" x2="690.7" y2="120.8" opacity="0.128"/>
    <line x1="702.3" y1="124.1" x2="687.1" y2="133" opacity="0.130"/>
    <line x1="701.3" y1="106.9" x2="673.4" y2="109.4" opacity="0.124"/>
    <line x1="764.1" y1="159.4" x2="787.5" y2="163.5" opacity="0.137"/>
    <line x1="760.6" y1="165.1" x2="753.6" y2="156.7" opacity="0.130"/>
    <line x1="760.2" y1="148.3" x2="780.5" y2="150.5" opacity="0.121"/>
    <line x1="775.8" y1="149.9" x2="773.5" y2="159.8" opacity="0.133"/>
    <line x1="701.5" y1="129.2" x2="506.5" y2="123" opacity="0.110"/>
    <line x1="707.9" y1="127.2" x2="607.2" y2="150.6" opacity="0.110"/>
    <line x1="528.5" y1="129.7" x2="624.5" y2="167.8" opacity="0.110"/>
    <line x1="618.8" y1="155.2" x2="778.3" y2="163.3" opacity="0.110"/>
    <line x1="597.8" y1="150.2" x2="510" y2="108.2" opacity="0.110"/>
    <line x1="506.5" y1="123" x2="607.2" y2="150.6" opacity="0.110"/>
    <line x1="781.1" y1="158.6" x2="699.7" y2="104" opacity="0.110"/>
  </g>
  <g>
    <circle cx="506.5" cy="123" r="2.2" fill="#4cc9f0" opacity="0.92"/>
    <circle cx="517.7" cy="122.8" r="1.8" fill="#4cc9f0" opacity="0.92"/>
    <circle cx="504.6" cy="126" r="2" fill="#4cc9f0" opacity="0.92"/>
    <circle cx="528.3" cy="129.5" r="1.7" fill="#4cc9f0" opacity="0.92"/>
    <circle cx="516.6" cy="120.6" r="1.7" fill="#4cc9f0" opacity="0.92"/>
    <circle cx="537.3" cy="108.2" r="1.9" fill="#4cc9f0" opacity="0.92"/>
    <circle cx="523.9" cy="129" r="1.6" fill="#4cc9f0" opacity="0.92"/>
    <circle cx="534.5" cy="135.1" r="1.9" fill="#4cc9f0" opacity="0.92"/>
    <circle cx="529.9" cy="117.1" r="1.7" fill="#4cc9f0" opacity="0.92"/>
    <circle cx="531.6" cy="125" r="1.8" fill="#4cc9f0" opacity="0.92"/>
    <circle cx="521.6" cy="138.6" r="1.9" fill="#4cc9f0" opacity="0.92"/>
    <circle cx="539.7" cy="127.7" r="1.7" fill="#4cc9f0" opacity="0.92"/>
    <circle cx="514.9" cy="125.6" r="1.7" fill="#4cc9f0" opacity="0.92"/>
    <circle cx="524.8" cy="113.8" r="2.1" fill="#4cc9f0" opacity="0.92"/>
    <circle cx="528.5" cy="129.7" r="1.4" fill="#4cc9f0" opacity="0.92"/>
    <circle cx="511.8" cy="134.5" r="1.9" fill="#4cc9f0" opacity="0.92"/>
    <circle cx="504.7" cy="133.7" r="1.6" fill="#4cc9f0" opacity="0.92"/>
    <circle cx="521.4" cy="123.8" r="1.7" fill="#4cc9f0" opacity="0.92"/>
    <circle cx="529.3" cy="128.1" r="1.8" fill="#4cc9f0" opacity="0.92"/>
    <circle cx="538.5" cy="132.8" r="2.3" fill="#4cc9f0" opacity="0.92"/>
    <circle cx="509" cy="115.5" r="1.4" fill="#4cc9f0" opacity="0.92"/>
    <circle cx="510" cy="108.2" r="1.4" fill="#4cc9f0" opacity="0.92"/>
    <circle cx="539.5" cy="138.5" r="2.2" fill="#4cc9f0" opacity="0.92"/>
    <circle cx="508.6" cy="136.1" r="2.9" fill="#4cc9f0" opacity="0.92"/>
    <circle cx="515.2" cy="112.2" r="2" fill="#4cc9f0" opacity="0.92"/>
    <circle cx="521.2" cy="129.2" r="1.5" fill="#4cc9f0" opacity="0.92"/>
    <circle cx="616.2" cy="145.3" r="3" fill="#fb7185" opacity="0.92"/>
    <circle cx="617" cy="150.2" r="1.3" fill="#fb7185" opacity="0.92"/>
    <circle cx="598.3" cy="160.2" r="1.4" fill="#fb7185" opacity="0.92"/>
    <circle cx="624.5" cy="167.8" r="2.1" fill="#fb7185" opacity="0.92"/>
    <circle cx="618.8" cy="155.2" r="1.9" fill="#fb7185" opacity="0.92"/>
    <circle cx="598.7" cy="165.8" r="2.7" fill="#fb7185" opacity="0.92"/>
    <circle cx="599.5" cy="161.6" r="1.7" fill="#fb7185" opacity="0.92"/>
    <circle cx="601.4" cy="168.5" r="1.6" fill="#fb7185" opacity="0.92"/>
    <circle cx="598.7" cy="162.7" r="1.9" fill="#fb7185" opacity="0.92"/>
    <circle cx="607.6" cy="159.6" r="2.5" fill="#fb7185" opacity="0.92"/>
    <circle cx="616.4" cy="167.7" r="2.1" fill="#fb7185" opacity="0.92"/>
    <circle cx="607.2" cy="150.6" r="2" fill="#fb7185" opacity="0.92"/>
    <circle cx="609.1" cy="164.2" r="2.2" fill="#fb7185" opacity="0.92"/>
    <circle cx="597.8" cy="150.2" r="2" fill="#fb7185" opacity="0.92"/>
    <circle cx="598.5" cy="166.8" r="1.4" fill="#fb7185" opacity="0.92"/>
    <circle cx="606.8" cy="159" r="2.2" fill="#fb7185" opacity="0.92"/>
    <circle cx="596.4" cy="158.8" r="2.1" fill="#fb7185" opacity="0.92"/>
    <circle cx="607.8" cy="170.7" r="1.8" fill="#fb7185" opacity="0.92"/>
    <circle cx="622.7" cy="154.2" r="1.7" fill="#fb7185" opacity="0.92"/>
    <circle cx="612.6" cy="162.6" r="2.2" fill="#fb7185" opacity="0.92"/>
    <circle cx="683.3" cy="114.7" r="1.4" fill="#ffd60a" opacity="0.92"/>
    <circle cx="700.1" cy="112.5" r="1.7" fill="#ffd60a" opacity="0.92"/>
    <circle cx="702.3" cy="124.1" r="1.9" fill="#ffd60a" opacity="0.92"/>
    <circle cx="677.3" cy="121.8" r="1.8" fill="#ffd60a" opacity="0.92"/>
    <circle cx="694.9" cy="133.9" r="1.8" fill="#ffd60a" opacity="0.92"/>
    <circle cx="690.7" cy="120.8" r="1.3" fill="#ffd60a" opacity="0.92"/>
    <circle cx="708" cy="124.3" r="1.7" fill="#ffd60a" opacity="0.92"/>
    <circle cx="699.7" cy="104" r="1.7" fill="#ffd60a" opacity="0.92"/>
    <circle cx="696.9" cy="103.3" r="1.4" fill="#ffd60a" opacity="0.92"/>
    <circle cx="707.9" cy="128.3" r="2.2" fill="#ffd60a" opacity="0.92"/>
    <circle cx="704.5" cy="113.8" r="2" fill="#ffd60a" opacity="0.92"/>
    <circle cx="673.4" cy="109.4" r="1.5" fill="#ffd60a" opacity="0.92"/>
    <circle cx="687.1" cy="133" r="3.2" fill="#ffd60a" opacity="0.92"/>
    <circle cx="707.9" cy="127.2" r="2.2" fill="#ffd60a" opacity="0.92"/>
    <circle cx="695.7" cy="113.6" r="1.3" fill="#ffd60a" opacity="0.92"/>
    <circle cx="707.2" cy="114.7" r="1.6" fill="#ffd60a" opacity="0.92"/>
    <circle cx="691.7" cy="102.3" r="1.9" fill="#ffd60a" opacity="0.92"/>
    <circle cx="701.3" cy="106.9" r="2.2" fill="#ffd60a" opacity="0.92"/>
    <circle cx="708.4" cy="125.2" r="1.8" fill="#ffd60a" opacity="0.92"/>
    <circle cx="701.5" cy="129.2" r="1.4" fill="#ffd60a" opacity="0.92"/>
    <circle cx="703.6" cy="112.8" r="1.7" fill="#ffd60a" opacity="0.92"/>
    <circle cx="697.2" cy="120.9" r="2.2" fill="#ffd60a" opacity="0.92"/>
    <circle cx="680" cy="125.2" r="1.9" fill="#ffd60a" opacity="0.92"/>
    <circle cx="709.5" cy="118.5" r="2" fill="#ffd60a" opacity="0.92"/>
    <circle cx="760.2" cy="148.3" r="1.4" fill="#80ed99" opacity="0.92"/>
    <circle cx="778.3" cy="163.3" r="1.4" fill="#80ed99" opacity="0.92"/>
    <circle cx="787.5" cy="163.5" r="3" fill="#80ed99" opacity="0.92"/>
    <circle cx="781.1" cy="158.6" r="1.3" fill="#80ed99" opacity="0.92"/>
    <circle cx="774.4" cy="158.6" r="1.3" fill="#80ed99" opacity="0.92"/>
    <circle cx="780.5" cy="150.5" r="1.4" fill="#80ed99" opacity="0.92"/>
    <circle cx="773.5" cy="159.8" r="2.5" fill="#80ed99" opacity="0.92"/>
    <circle cx="760.6" cy="165.1" r="1.9" fill="#80ed99" opacity="0.92"/>
    <circle cx="765.1" cy="150.1" r="1.8" fill="#80ed99" opacity="0.92"/>
    <circle cx="760.8" cy="164.1" r="1.9" fill="#80ed99" opacity="0.92"/>
    <circle cx="780.7" cy="161" r="1.5" fill="#80ed99" opacity="0.92"/>
    <circle cx="775.8" cy="149.9" r="1.7" fill="#80ed99" opacity="0.92"/>
    <circle cx="768.9" cy="161.1" r="1.4" fill="#80ed99" opacity="0.92"/>
    <circle cx="753.6" cy="156.7" r="2.2" fill="#80ed99" opacity="0.92"/>
    <circle cx="763.4" cy="163.1" r="1.4" fill="#80ed99" opacity="0.92"/>
    <circle cx="777.7" cy="158.8" r="1.9" fill="#80ed99" opacity="0.92"/>
    <circle cx="764.1" cy="159.4" r="2.1" fill="#80ed99" opacity="0.92"/>
    <circle cx="778.1" cy="155.8" r="2" fill="#80ed99" opacity="0.92"/>
    <circle cx="586.4" cy="113.6" r="1.5" fill="#6e7681" opacity="0.92"/>
    <circle cx="569.3" cy="113.9" r="1.5" fill="#6e7681" opacity="0.92"/>
    <circle cx="548.7" cy="120.5" r="1.2" fill="#6e7681" opacity="0.92"/>
    <circle cx="489.9" cy="107.8" r="1.1" fill="#6e7681" opacity="0.92"/>
    <circle cx="589.4" cy="144.5" r="1.3" fill="#6e7681" opacity="0.92"/>
    <circle cx="796.4" cy="161.9" r="1.5" fill="#6e7681" opacity="0.92"/>
    <circle cx="577.8" cy="157.6" r="1.4" fill="#6e7681" opacity="0.92"/>
    <circle cx="771.7" cy="133.5" r="1.6" fill="#6e7681" opacity="0.92"/>
    <circle cx="541.6" cy="120.8" r="1.7" fill="#6e7681" opacity="0.92"/>
    <circle cx="578.4" cy="105.9" r="1.6" fill="#6e7681" opacity="0.92"/>
  </g>
  <circle class="ht0" cx="607.6" cy="159.6" r="3.2" fill="#fbbf24" opacity="0"/>
  <circle class="ht1" cx="773.5" cy="159.8" r="3.2" fill="#fbbf24" opacity="0"/>
  <text class="v0" x="476" y="207" font-size="10.5" fill="#6e7681">3,800 docs · ~2.1M tok · 0 loaded</text>
  <text class="v1a" x="476" y="207" font-size="10.5" fill="#6e7681">3,800 docs · ~2.1M tok · <tspan fill="#fbbf24">1 loaded</tspan></text>
  <text class="v1b" x="476" y="207" font-size="10.5" fill="#6e7681">3,800 docs · ~2.1M tok · <tspan fill="#fbbf24">1 loaded</tspan></text>
  <rect x="476" y="224" width="308" height="42" rx="8" fill="#0f1712" stroke="#2b4534"/>
  <text x="490" y="242" font-size="11" fill="#3fb950">④ session archive</text>
  <text x="490" y="257" font-size="10" fill="#6e7681">187 sessions · decisions and the why · ≈0 loaded</text>
  <text x="476" y="296" font-size="11" fill="#4d5566">everything on this side costs 0 tokens</text>
  <text x="476" y="312" font-size="11" fill="#4d5566">until a router row routes into it</text>
  <path class="pg0" pathLength="100" d="M 388 148 Q 497.7 127.8 604.6 159.6" fill="none" stroke="#fbbf24" stroke-width="1.4"/>
  <path class="pg1" pathLength="100" d="M 388 167 Q 578.7 133.4 770.5 159.8" fill="none" stroke="#fbbf24" stroke-width="1.4"/>
  <circle class="fl0" cx="607.6" cy="159.6" r="3.4" fill="#fbbf24"/>
  <circle class="fl1" cx="773.5" cy="159.8" r="3.4" fill="#fbbf24"/>
  <text class="pl0" x="440" y="424" font-size="12" fill="#8b949e" text-anchor="middle">session 1: <tspan fill="#fbbf24">6.4k</tspan> of ~3.0M known (0.2%) · chosen by a row, not similarity</text>
  <text class="pl1" x="440" y="424" font-size="12" fill="#8b949e" text-anchor="middle">session 2: <tspan fill="#fbbf24">6.1k</tspan> · a different row, a different KB, same flat base</text>
  <text class="pl2" x="440" y="424" font-size="12" fill="#8b949e" text-anchor="middle">session 3: 5.0k · no row fired, the deep side cost nothing</text>
  <text x="440" y="450" font-size="11" fill="#6e7681" text-anchor="middle">memory can grow without bound; the per-session tax stays flat</text>
</svg>
